
-: Cover :- 

 
http://desibbrg.net/imghost/show.php?img=430639_Sahib.BIbi.Aur.Ghulam.1962.DVDRip.x264.AAC.Esub.720p.HD.RRG.DADA..jpg.html


-: Screens :-





 
http://desibbrg.net/imghost/show.php?img=430636_SahibBibiAurGhulam.mp4snapshot00.25.102013.04.0211.06.57.jpg.html 
http://desibbrg.org/images/36785408863276731804.jpg 
http://desibbrg.org/images/10637771310921158330.jpg 
http://desibbrg.org/images/56423502443593538838.jpg 
http://desibbrg.org/images/62916468287416591286.jpg 
http://desibbrg.org/images/22731758226629634115.jpg 
http://desibbrg.org/images/08596499233223427537.jpg 
http://desibbrg.org/images/87075917419358168234.jpg 
http://desibbrg.org/images/12221997496357266597.jpg 
http://desibbrg.org/images/81116273041647461345.jpg 
http://desibbrg.net/imghost/show.php?img=430637_Sahib.BIbi.Aur.Ghulam.1962.DVDRip.x264.AAC.Esub.720p.HD.RRG.DADA.DBBIANS.Comthumbs.jpg.html


-: Info :-  


General

Format : MPEG-4
Format profile : Base Media / Version 2
Codec ID : mp42
File size : 1.44 GiB
Duration : 2h 26mn
Overall bit rate : 1 411 Kbps

Video
ID : 1
Format : AVC
Format/Info : Advanced Video Codec
Format profile : High@L3.1
Format settings, CABAC : Yes
Format settings, ReFrames : 1 frame
Codec ID : avc1
Codec ID/Info : Advanced Video Coding
Duration : 2h 26mn
Bit rate mode : Variable
Bit rate : 1 257 Kbps
Maximum bit rate : 3 158 Kbps
Width : 1 280 pixels
Height : 720 pixels
Display aspect ratio : 16:9
Frame rate mode : Constant
Frame rate : 25.000 fps
Color space : YUV
Chroma subsampling : 40
Bit depth : 8 bits
Scan type : Progressive
Bits/(Pixel*Frame) : 0.055
Stream size : 1.28 GiB (89%)


Audio
ID : 2
Format : AAC
Format/Info : Advanced Audio Codec
Format version : Version 4
Format profile : LC
Format settings, SBR : No
Codec ID : 40
Duration : 2h 26mn
Bit rate mode : Variable
Bit rate : 152 Kbps
Maximum bit rate : 206 Kbps
Channel(s) : 2 channels
Channel positions : Front: L R
Sampling rate : 44.1 KHz
Stream size : 159 MiB (11%)

 
http://www.imdb.com/title/tt0056436/

About this movie

    Genres:
Indian Cinema, Drama, Family
    Language:
Hindi
    Subtitles:
English
    Running time:
2:26:11
    Partner rating: 
GREEN
    Released:
Nov 15, 1962


Cast & Crew
Cast

    Guru Dutt
    Meena Kumari
    Sapru
    Waheeda Rehman
    Rehman.

Directors

    Abrar Alvi

Producers

    Guru Dutt


Super Hit old classic movie Sahib BIbi Aur Ghulam (1962) Synopsis: Bhoothnath [Guru Dutt] comes to Calcutta in search of work and finds work as a servant in a rich household. He soon finds himself drawn to the zamindar s pretty young wife, commonly known as Chhoti Bahu [Meena Kumari], who in his view seems to lead a remarkably lonely life as she spends her long days waiting for her husband to return. Her husband spends his time steeped in alcohol and women, and so desparate is Chhoti Bahu to get him that she even takes to drinking to attune herself to his lifestyle. The film has a tragic undercurrent throughout, where the downfall of the Chowdhury household is symbolic of an era. 